<?xml version="1.0" encoding="UTF-8"?>
<svg xmlns="http://www.w3.org/2000/svg" version="1.2" viewBox="0 0 512 512" width="512" height="512">
  <g fill="#0085ad">
    <path
      d="M53.088 406.102a8.522 8.522 0 01-6.992-3.629A253.535 253.535 0 01.001 256.002c.16-141.318 114.682-255.84 256-256a8.533 8.533 0 010 17.066c-131.898.148-238.785 107.036-238.933 238.934a236.521 236.521 0 0042.996 136.663 8.531 8.531 0 01-6.976 13.437zM256.001 512.002a254.52 254.52 0 01-175.417-69.658 8.533 8.533 0 1111.717-12.408c69.385 65.368 170.994 83.22 258.505 45.416S494.969 351.33 494.935 256.003a235.664 235.664 0 00-51.563-148.204 8.535 8.535 0 1113.359-10.625 252.58 252.58 0 0155.27 158.829c-.16 141.317-114.682 255.838-256 255.999z"/>
    <path
      d="M256.001 443.735c-98.486-.009-180.226-76.117-187.255-174.352S131.79 84.178 229.272 70.147a8.533 8.533 0 012.425 16.892C156.231 97.871 97.1 157.438 86.824 232.982s30.794 148.742 100.625 179.338 151.485 11.171 200.056-47.594a8.534 8.534 0 0113.134 10.9 187.55 187.55 0 01-144.638 68.109zM420.518 335.281a8.54 8.54 0 01-7.821-11.946 167.605 167.605 0 0013.971-67.333 169.381 169.381 0 00-34.138-102.317 8.534 8.534 0 0113.658-10.234c40.4 53.729 48.86 125.007 22.158 186.7a8.543 8.543 0 01-7.828 5.13z"/>
    <path
      d="M256.001 375.468c-55.482.168-103.715-38.036-116.254-92.083a8.543 8.543 0 1116.729-3.433c9.541 39.74 41.804 69.998 82.074 76.974 40.27 6.976 80.83-10.667 103.182-44.882s22.214-78.446-.352-112.521a8.534 8.534 0 012.417-11.825 8.534 8.534 0 0111.825 2.417c24.28 36.674 26.437 83.725 5.614 122.466s-61.252 62.902-105.235 62.887zM148.055 239.147a8.499 8.499 0 01-8.533-8.491v-.084c0-.658.075-1.314.225-1.954 12.539-54.047 60.772-92.251 116.254-92.083a8.533 8.533 0 010 17.066c-47.485-.145-88.784 32.508-99.596 78.746a8.563 8.563 0 01-8.35 6.8z"/>
    <path
      d="M256.001 307.202c-28.277 0-51.2-22.923-51.2-51.2s22.923-51.2 51.2-51.2a51.91 51.91 0 0120.817 4.379 8.535 8.535 0 11-6.816 15.65 34.868 34.868 0 00-14-2.963c-18.851 0-34.133 15.282-34.133 34.133 0 18.851 15.282 34.133 34.133 34.133s34.133-15.282 34.133-34.133a34.855 34.855 0 00-1.779-11.038 8.536 8.536 0 0116.192-5.4 51.876 51.876 0 012.654 16.438c-.032 28.265-22.937 51.17-51.201 51.201z"/>
  </g>
  <g fill="#005587">
    <circle cx="256.001" cy="76.802" r="25.6"/>
    <circle cx="145.068" cy="256.002" r="25.6"/>
    <circle cx="68.268" cy="418.135" r="25.6"/>
    <circle cx="409.601" cy="349.868" r="25.6"/>
    <path
      d="M257.131 231.892l184.9-168.303c6.97-6.345 17.765-5.838 24.109 1.133 6.345 6.97 5.838 17.765-1.133 24.109l-184.9 168.303c-6.97 6.345-17.765 5.838-24.109-1.133-6.345-6.97-5.838-17.764 1.133-24.109z"/>
  </g>
</svg>
