<?xml version="1.0" encoding="UTF-8"?>
<svg xmlns="http://www.w3.org/2000/svg" version="1.2" viewBox="-100 -100 2200 2200" width="100" height="100">
  <circle fill="#84bd00" cx="1000" cy="1000" r="1000"/>
  <path fill="#f6f8fa" d="m1513.3 805.57h38.46l108.27-213.74-83.297-98.848h-60.024v-71.966h42.798c7.5936 0 13.752-6.1655 13.752-13.759s-6.1583-13.752-13.752-13.752h-108.88c-7.5971 0-13.756 6.1584-13.756 13.752s6.1584 13.759 13.756 13.759h42.798v71.966h-257.66l-83.301 98.848 108.27 213.74h38.46v228.59h-346.36v-116.03h-483.13v116.03h-129.72v572.33h163.02v-285.54h205.87v285.54h916.33v-572.33h-111.94zm-216.6-54.137-51.841-105.47h100.5v105.47zm-573.51 449.33h-276.09v-83.297h276.09zm328.45 0h-276.09v-83.297h276.09zm328.45 0h-276.09v-83.297h276.09zm64.526-449.33h-76.692v-105.47h76.692zm22.559-105.47h100.5l-51.845 105.47h-48.664v-105.47z"/>
</svg>
