<?xml version="1.0" encoding="UTF-8"?>
<svg xmlns="http://www.w3.org/2000/svg" version="1.2" viewBox="-100 -100 2200 2200" width="100" height="100">
  <circle fill="#da1884" cx="1000" cy="1000" r="1000"/>
  <path fill="#f6f8fa" d="M992.842 386.14L743.776 635.205l28.74 28.74c5.29 5.291 5.286 13.867-.004 19.158l-19.16 19.16c-5.29 5.29-13.866 5.294-19.156.003l-28.741-28.739-249.066 249.066c-5.29 5.29-5.29 13.869 0 19.159l536.452 536.452c5.29 5.29 13.87 5.29 19.16 0l57.477-57.477c-5.29 5.29-13.87 5.291-19.16 0l-191.59-191.59c-5.29-5.29-5.289-13.87.001-19.16l38.316-38.315c5.295-5.295 13.87-5.292 19.16 0l191.59 191.589c5.29 5.29 5.294 13.866 0 19.16l57.48-57.48c-5.29 5.29-13.87 5.29-19.159 0l-191.59-191.59c-5.29-5.29-5.29-13.869 0-19.159l38.317-38.316c5.29-5.29 13.87-5.29 19.16 0l191.589 191.59c5.29 5.289 5.29 13.868 0 19.159l57.476-57.476c-5.29 5.29-13.87 5.29-19.16 0l-191.589-191.59c-5.29-5.29-5.29-13.869 0-19.16l38.321-38.32c5.29-5.29 13.87-5.29 19.16 0l191.59 191.589c5.289 5.29 5.29 13.87 0 19.16l57.475-57.477c-5.29 5.29-13.87 5.29-19.16 0l-191.589-191.589c-5.29-5.29-5.29-13.87 0-19.16l38.317-38.316c5.29-5.29 13.869-5.29 19.159 0l191.59 191.59c5.29 5.29 5.29 13.869 0 19.16l57.48-57.482c-5.295 5.295-13.87 5.292-19.16 0l-191.59-191.59c-5.291-5.29-5.295-13.865 0-19.16l38.315-38.315c5.29-5.291 13.87-5.292 19.16 0l191.59 191.589c5.29 5.29 5.289 13.87 0 19.16l57.477-57.477c5.29-5.29 5.29-13.869 0-19.16L1012.002 386.14c-5.29-5.29-13.87-5.29-19.16 0zm19.16 517.291c5.29 5.29 5.29 13.87 0 19.16l-19.16 19.16c-5.29 5.291-13.87 5.292-19.16 0l-172.43-172.428c-5.29-5.29-5.29-13.87 0-19.161l19.16-19.16c5.29-5.29 13.87-5.29 19.161 0zm0 0M797.034 1420.583l-172.826-172.826c-40.004 34.846-89.593 55.355-142.644 58.985v294.093c.004 9.384-7.609 16.996-16.993 16.993-9.387 0-16.992-7.605-16.992-16.993v-536.75a16.997 16.997 0 0110.49-15.7 16.993 16.993 0 0118.517 3.684l344.48 344.48c6.635 6.634 6.639 17.396 0 24.034-6.637 6.638-17.398 6.634-24.032 0z"/>
</svg>
