<?xml version="1.0" encoding="UTF-8"?>
<svg xmlns="http://www.w3.org/2000/svg" version="1.2" viewBox="-100 -100 2200 2200" width="100" height="100">
  <circle fill="#00aec7" cx="1000" cy="1000" r="1000"/>
  <path fill="#f6f8fa" d="M1531.034 450h-493.1v56.9c0 10.474-8.494 18.959-18.968 18.959h-37.932c-10.475 0-18.968-8.485-18.968-18.959V450h-493.1C458.492 450 450 458.493 450 468.966v1062.068c0 10.473 8.492 18.966 18.966 18.966H582.76c-10.475 0-18.968-8.492-18.968-18.966v-379.309c0-10.474 8.494-18.966 18.968-18.966h75.857c10.483 0 18.968 8.492 18.968 18.966v379.309c0 10.473-8.485 18.966-18.968 18.966h113.8c-10.474 0-18.966-8.493-18.966-18.966v-379.309c0-10.474 8.492-18.966 18.966-18.966h75.859c10.474 0 18.966 8.492 18.966 18.966v379.309c0 10.473-8.492 18.966-18.966 18.966h113.791c-10.474 0-18.966-8.493-18.966-18.966v-379.309c0-10.474 8.492-18.966 18.966-18.966h75.868c10.474 0 18.966 8.492 18.966 18.966v379.309c0 10.473-8.492 18.966-18.966 18.966h113.791c-10.474 0-18.966-8.492-18.966-18.966v-379.309c0-10.474 8.492-18.966 18.966-18.966h75.859c10.473 0 18.966 8.492 18.966 18.966v379.309c0 10.473-8.492 18.966-18.966 18.966h113.8c-10.483 0-18.968-8.492-18.968-18.966v-379.309c0-10.474 8.485-18.966 18.968-18.966h75.857c10.475 0 18.968 8.492 18.968 18.966v379.309c0 10.473-8.494 18.966-18.968 18.966h113.793c10.473 0 18.966-8.492 18.966-18.966V468.966c0-10.474-8.493-18.966-18.966-18.966zm-493.1 531.034c0 10.474-8.494 18.966-18.968 18.966h-37.932c-10.475 0-18.968-8.492-18.968-18.966V639.659c0-10.475 8.494-18.968 18.968-18.968h37.932c10.475 0 18.968 8.494 18.968 18.968zm0 0"/>
</svg>
