<?xml version="1.0" encoding="UTF-8"?>
<svg xmlns="http://www.w3.org/2000/svg" version="1.2" viewBox="-100 -100 2200 2200" width="100" height="100">
  <circle fill="#40467a" cx="1000" cy="1000" r="1000"/>
  <g transform="translate(230,-230)">
    <g transform="matrix(1.1826 0 0 1.1826 -257.88 -2051.4)">
      <path fill="#f6f8fa" d="m868.5 2939c-92.508 0-167.5-72.978-167.5-163s74.992-163 167.5-163 167.5 72.978 167.5 163-74.992 163-167.5 163zm0-59.596c55.656 0 100.77-46.295 100.77-103.4s-45.118-103.4-100.77-103.4c-55.656 0-100.77 46.295-100.77 103.4s45.118 103.4 100.77 103.4z"/>
      <path fill="#f6f8fa" d="m926.13 2997c19.547-4.8737 39.237 6.5916 43.979 25.608 4.7414 19.017-7.2611 38.384-26.808 43.258s-39.237-6.5916-43.979-25.608c-4.7414-19.017 7.2611-38.384 26.808-43.258zm177.12-249.66c-2.4551-19.996 11.324-38.141 30.777-40.53s37.213 11.885 39.668 31.88c2.4551 19.996-11.324 38.141-30.777 40.53-19.453 2.3885-37.213-11.885-39.668-31.88zm-291.28 249.66c19.547 4.8737 31.55 24.241 26.808 43.258-4.7414 19.017-24.431 30.482-43.979 25.608s-31.55-24.241-26.808-43.258c4.7414-19.017 24.431-30.482 43.979-25.608zm57.083-450.39c-20.146 0-36.477-15.888-36.477-35.487s16.331-35.487 36.477-35.487c20.146 0 36.477 15.888 36.477 35.487s-16.331 35.487-36.477 35.487zm-157.89 398.47c14.971 13.48 16.476 36.215 3.3622 50.78-13.114 14.565-35.882 15.444-50.853 1.9641-14.971-13.48-16.476-36.215-3.3622-50.78 13.114-14.565 35.882-15.444 50.853-1.9642zm378.17-87.956c7.2195-18.808 27.905-28.36 46.202-21.337 18.297 7.0237 27.278 27.964 20.058 46.772-7.2195 18.808-27.905 28.36-46.202 21.337-18.297-7.0237-27.277-27.964-20.058-46.772zm-440.57 0c7.2196 18.808-1.7606 39.748-20.058 46.772-18.297 7.0236-38.983-2.5292-46.202-21.337-7.2196-18.808 1.7606-39.748 20.058-46.772 18.297-7.0236 38.983 2.5291 46.202 21.337zm413.57-213.03c-11.555-16.502-7.9075-38.993 8.147-50.235 16.055-11.242 38.437-6.9768 49.992 9.5256s7.9075 38.993-8.147 50.235c-16.055 11.242-38.437 6.9768-49.992-9.5256zm-427.48 103.26c-2.4551 19.996-20.215 34.269-39.668 31.88-19.453-2.3886-33.232-20.534-30.777-40.53 2.4551-19.996 20.215-34.269 39.668-31.88 19.453 2.3885 33.232 20.534 30.777 40.53zm392.08 197.73c14.971-13.48 37.739-12.601 50.853 1.9642 13.114 14.565 11.609 37.3-3.3621 50.78-14.971 13.48-37.739 12.601-50.853-1.9641-13.114-14.565-11.609-37.3 3.3622-50.78zm-351.17-300.99c-11.555 16.502-33.937 20.767-49.992 9.5256-16.055-11.242-19.702-33.732-8.147-50.235s33.937-20.767 49.992-9.5256 19.702 33.732 8.147 50.235zm304.06-70.719c-17.788-9.4579-24.748-31.153-15.547-48.458s31.08-23.666 48.868-14.208 24.748 31.153 15.547 48.458-31.08 23.666-48.868 14.208zm-221.55 0c-17.788 9.4578-39.666 3.0965-48.868-14.208-9.2012-17.305-2.2405-39 15.547-48.458 17.788-9.4578 39.666-3.0965 48.868 14.208s2.2405 39-15.547 48.458z"/>
      <path fill="#f6f8fa" d="m1201.2 2708.1c-1.4053-20.097 13.305-37.496 32.856-38.864 19.551-1.3672 36.54 13.816 37.945 33.913s-13.305 37.496-32.856 38.864c-19.551 1.3672-36.54-13.816-37.945-33.913zm-277.68-258.6c-19.265-5.89-30.238-25.859-24.508-44.601s25.993-29.162 45.259-23.272c19.265 5.8901 30.238 25.859 24.508 44.601-5.7302 18.743-25.993 29.162-45.259 23.272zm283.21 355.91c4.5318-19.629 23.686-31.968 42.783-27.559s30.904 23.896 26.372 43.525-23.686 31.968-42.783 27.559-30.904-23.896-26.372-43.525zm-105.12-270.43c-12.678-15.656-10.608-38.347 4.623-50.681 15.231-12.334 37.856-9.641 50.534 6.0152 12.678 15.656 10.608 38.347-4.6229 50.681-15.231 12.334-37.856 9.641-50.534-6.0152zm81.076 365.07c10.073-17.447 31.998-23.646 48.971-13.846 16.973 9.7995 22.567 31.887 12.494 49.334-10.073 17.447-31.998 23.646-48.971 13.846-16.973-9.7995-22.567-31.887-12.494-49.334zm-359.64-451.95c-20.146 0-36.477-15.888-36.477-35.487s16.331-35.487 36.477-35.487c20.146 0 36.477 15.888 36.477 35.487s-16.331 35.487-36.477 35.487zm308.12 535.65c14.734-13.739 37.513-13.257 50.88 1.0764s12.258 37.092-2.4754 50.831c-14.734 13.739-37.513 13.257-50.88-1.0764s-12.258-37.092 2.4754-50.831zm35.398-367.13c-7.2196-18.808 1.7607-39.748 20.058-46.772 18.297-7.0237 38.983 2.5291 46.202 21.337 7.2196 18.808-1.7607 39.748-20.058 46.772-18.297 7.0237-38.983-2.5291-46.202-21.337zm-109.88 432.58c18.107-8.8313 39.75-1.7103 48.342 15.905 8.5916 17.616 0.878 39.055-17.229 47.886-18.107 8.8313-39.75 1.7103-48.342-15.905-8.5916-17.615-0.878-39.055 17.229-47.886zm-37.543-569.87c-16.702-11.265-21.356-33.57-10.397-49.818 10.96-16.248 33.383-20.288 50.085-9.0224 16.702 11.265 21.356 33.57 10.397 49.818-10.96 16.248-33.383 20.288-50.085 9.0225zm-53.4 611.33c19.898-3.1515 38.513 9.9863 41.579 29.344 3.066 19.358-10.579 37.605-30.476 40.756-19.898 3.1514-38.513-9.9863-41.579-29.344s10.579-37.605 30.477-40.756zm-105.39 13.783c19.898 3.1515 33.542 21.399 30.477 40.756s-21.682 32.495-41.579 29.344-33.542-21.399-30.477-40.756 21.682-32.495 41.579-29.344zm-98.993-16.625c18.107 8.8313 25.82 30.271 17.229 47.886s-30.235 24.736-48.342 15.905c-18.107-8.8313-25.82-30.271-17.229-47.886 8.5916-17.615 30.235-24.736 48.342-15.905zm-89.646-43.976c14.734 13.739 15.842 36.497 2.4754 50.831-13.366 14.334-36.146 14.816-50.88 1.0764-14.734-13.739-15.842-36.497-2.4754-50.831s36.146-14.816 50.88-1.0764zm-72.464-67.484c10.073 17.447 4.479 39.534-12.494 49.334s-38.898 3.6002-48.971-13.846c-10.073-17.447-4.479-39.534 12.494-49.334 16.973-9.7995 38.898-3.6002 48.971 13.846zm-48.95-85.096c4.5318 19.629-7.2754 39.116-26.372 43.525-19.097 4.4089-38.251-7.9298-42.783-27.559-4.5318-19.629 7.2754-39.116 26.372-43.525s38.251 7.9299 42.783 27.559zm-21.158-95.27c-1.4053 20.097-18.394 35.28-37.945 33.913-19.551-1.3672-34.261-18.767-32.856-38.864 1.4053-20.097 18.394-35.28 37.945-33.913 19.551 1.3672 34.261 18.767 32.856 38.864zm8.4832-97.118c-7.2196 18.808-27.905 28.36-46.202 21.337-18.297-7.0237-27.277-27.964-20.058-46.772 7.2196-18.808 27.905-28.36 46.202-21.337 18.297 7.0237 27.277 27.964 20.058 46.772zm40.424-95.421c-12.678 15.656-35.303 18.349-50.534 6.0152-15.231-12.334-17.301-35.025-4.6229-50.681 12.678-15.656 35.303-18.349 50.534-6.0153 15.231 12.334 17.301 35.025 4.623 50.681zm64.372-74.856c-16.702 11.265-39.125 7.2258-50.085-9.0225s-6.3049-38.552 10.397-49.818c16.702-11.265 39.125-7.2259 50.085 9.0224 10.96 16.248 6.3049 38.553-10.397 49.818zm84.113-53.337c-19.265 5.8901-39.528-4.529-45.259-23.272-5.7302-18.743 5.2423-38.711 24.508-44.601 19.265-5.89 39.528 4.529 45.259 23.272 5.7302 18.743-5.2423 38.711-24.508 44.601z"/>
      <path fill="#f6f8fa" d="m1179.2 2449.6c-10.676-17.085-5.856-39.354 10.765-49.74s38.749-4.9556 49.425 12.129c10.676 17.085 5.8559 39.354-10.765 49.74-16.621 10.386-38.749 4.9556-49.425-12.129zm-334.94-117.5c-19.705-4.1885-32.377-23.125-28.302-42.296 4.0749-19.171 23.353-31.316 43.058-27.128 19.705 4.1885 32.377 23.125 28.302 42.296-4.0749 19.171-23.353 31.316-43.058 27.128zm397.59 187.18c-6.8902-18.931 2.4541-39.711 20.871-46.415 18.417-6.7032 38.933 3.2092 45.823 22.14 6.8903 18.931-2.4541 39.711-20.871 46.414-18.417 6.7033-38.933-3.2091-45.823-22.14zm-217.79-161.51c-16.502-11.555-20.767-33.937-9.5256-49.992 11.242-16.055 33.732-19.702 50.235-8.147s20.767 33.937 9.5256 49.992c-11.242 16.055-33.732 19.702-50.235 8.147zm260.95 235.24c-3.1515-19.898 9.9863-38.513 29.344-41.579 19.358-3.0659 37.605 10.579 40.756 30.476 3.1514 19.898-9.9863 38.513-29.344 41.579s-37.605-10.579-40.756-30.476zm-534.85-246.22c-20.146 0-36.477-15.888-36.477-35.487s16.331-35.487 36.477-35.487c20.146 0 36.477 15.888 36.477 35.487s-16.331 35.487-36.477 35.487zm564.46 334.14c1.0544-20.118 17.775-35.596 37.348-34.57 19.572 1.0258 34.584 18.166 33.529 38.284s-17.775 35.596-37.348 34.57c-19.572-1.0257-34.584-18.166-33.529-38.284zm-211.63-286.82c-13.994-14.492-13.91-37.276 0.1882-50.891 14.098-13.615 36.872-12.904 50.866 1.588 13.994 14.492 13.91 37.276-0.1883 50.891-14.098 13.615-36.872 12.904-50.866-1.588zm221.76 378.81c5.2141-19.459 24.788-31.122 43.719-26.049 18.931 5.0726 30.051 24.96 24.837 44.419-5.2141 19.459-24.788 31.122-43.719 26.049-18.931-5.0726-30.051-24.96-24.837-44.419zm-393.2-437.31c-18.544-7.8716-27.369-28.878-19.711-46.919s28.899-26.285 47.443-18.413c18.544 7.8716 27.369 28.878 19.711 46.919s-28.899 26.285-47.443 18.413zm384.98 521.77c8.8313-18.107 30.271-25.82 47.886-17.229 17.615 8.5917 24.736 30.235 15.905 48.342s-30.271 25.82-47.886 17.229-24.736-30.235-15.905-48.342zm-27.696 88.534c12.403-15.875 34.978-18.963 50.422-6.8963 15.444 12.066 17.91 34.717 5.5067 50.592-12.403 15.875-34.978 18.962-50.422 6.8962-15.444-12.066-17.91-34.717-5.5068-50.592zm-41.554 74.644c15.204-13.217 37.953-11.94 50.811 2.8514 12.858 14.792 10.956 37.497-4.2479 50.714-15.204 13.217-37.953 11.94-50.811-2.8514-12.858-14.792-10.956-37.497 4.2479-50.714zm-61.121 71.009c17.62-9.7669 39.606-3.7884 49.108 13.353s2.9208 38.955-14.699 48.722c-17.62 9.7669-39.606 3.7884-49.108-13.353-9.5017-17.142-2.9208-38.955 14.699-48.722zm-74.986 57.129c19.265-5.89 39.528 4.5291 45.259 23.272s-5.2423 38.711-24.508 44.601c-19.266 5.8901-39.528-4.529-45.259-23.272s5.2423-38.711 24.508-44.601zm-78.126 38.03c20.035-2.1058 37.938 11.988 39.987 31.48 2.0486 19.492-12.532 37-32.568 39.106-20.035 2.1058-37.938-11.988-39.987-31.48-2.0487-19.492 12.532-37 32.568-39.106zm-92.001 24.156c20.035 2.1058 34.616 19.614 32.568 39.106-2.0487 19.492-19.951 33.586-39.987 31.48-20.035-2.1058-34.616-19.614-32.568-39.106 2.0486-19.492 19.951-33.586 39.987-31.48zm-87.204 5.3794c19.265 5.89 30.238 25.859 24.508 44.601s-25.993 29.162-45.259 23.272c-19.265-5.8901-30.238-25.859-24.508-44.601 5.7302-18.743 25.993-29.162 45.259-23.272zm-94.389-12.658c17.62 9.7668 24.201 31.58 14.699 48.722-9.5018 17.142-31.488 23.12-49.108 13.353-17.62-9.7669-24.201-31.58-14.699-48.722 9.5018-17.142 31.488-23.12 49.108-13.353zm-89.604-31.435c15.204 13.217 17.106 35.922 4.2479 50.714-12.858 14.792-35.607 16.068-50.811 2.8514s-17.106-35.922-4.2479-50.714c12.858-14.792 35.607-16.068 50.811-2.8514zm-74.583-44.151c12.403 15.875 9.9375 38.526-5.5067 50.592-15.444 12.066-38.019 8.9788-50.422-6.8963-12.403-15.875-9.9375-38.526 5.5067-50.592 15.444-12.066 38.019-8.9788 50.422 6.8962zm-69.81-62.933c8.8313 18.107 1.7103 39.75-15.905 48.342-17.615 8.5916-39.055 0.878-47.886-17.229-8.8313-18.107-1.7103-39.75 15.905-48.342 17.615-8.5916 39.055-0.878 47.886 17.229zm-50.868-68.942c5.2141 19.459-5.9058 39.346-24.837 44.419s-38.505-6.5901-43.719-26.049c-5.2141-19.459 5.9058-39.346 24.837-44.419s38.505 6.5901 43.719 26.049zm-38.916-84.425c1.0544 20.118-13.957 37.258-33.529 38.284-19.572 1.0257-36.293-14.452-37.348-34.57-1.0543-20.118 13.957-37.259 33.529-38.284 19.572-1.0258 36.293 14.452 37.348 34.57zm-19.981-90.445c-3.1515 19.898-21.399 33.542-40.756 30.476-19.358-3.066-32.495-21.682-29.344-41.579 3.1515-19.898 21.399-33.542 40.756-30.476 19.358 3.066 32.495 21.682 29.344 41.579zm-0.92013-84.822c-6.8902 18.931-27.406 28.843-45.823 22.14-18.417-6.7033-27.761-27.484-20.871-46.414 6.8902-18.931 27.406-28.843 45.823-22.14 18.417 6.7032 27.761 27.484 20.871 46.414zm18.014-90.854c-10.676 17.085-32.804 22.515-49.425 12.129-16.621-10.386-21.441-32.655-10.765-49.74s32.804-22.515 49.425-12.129c16.621 10.386 21.441 32.655 10.765 49.74zm37.075-85.243c-13.994 14.492-36.768 15.202-50.866 1.5879s-14.183-36.399-0.18824-50.891c13.994-14.492 36.768-15.203 50.866-1.588 14.098 13.615 14.183 36.399 0.18823 50.891zm49.361-70.022c-16.502 11.555-38.993 7.9076-50.235-8.147-11.242-16.055-6.9768-38.437 9.5256-49.992s38.993-7.9076 50.235 8.147c11.242 16.054 6.9768 38.437-9.5256 49.992zm68.428-64.422c-18.544 7.8715-39.785-0.3724-47.443-18.413s1.1671-39.047 19.711-46.919c18.544-7.8715 39.785 0.3724 47.443 18.413s-1.1671 39.047-19.711 46.919zm73.608-45.747c-19.705 4.1885-38.983-7.957-43.058-27.128s8.5963-38.107 28.302-42.296c19.705-4.1886 38.983 7.9569 43.058 27.128 4.0749 19.171-8.5963 38.107-28.302 42.296z"/>
      <path fill="#f6f8fa" d="m1121.5 2285.7c-16.502-11.555-20.767-33.937-9.5256-49.992 11.242-16.054 33.732-19.702 50.235-8.147s20.767 33.937 9.5256 49.992c-11.242 16.055-33.732 19.702-50.235 8.147zm-158.47-50.327c-19.16-6.2254-29.782-26.383-23.726-45.022 6.0564-18.64 26.498-28.704 45.658-22.478 19.16 6.2254 29.782 26.383 23.726 45.022-6.0565 18.64-26.498 28.704-45.658 22.478zm234.24 94.736c-14.492-13.994-15.203-36.768-1.588-50.866s36.399-14.183 50.891-0.1882 15.203 36.768 1.588 50.866c-13.615 14.098-36.399 14.183-50.891 0.1883zm-322.4-102.39c-19.898-3.1515-33.542-21.399-30.477-40.756s21.682-32.495 41.579-29.344c19.898 3.1515 33.542 21.399 30.477 40.756s-21.682 32.496-41.579 29.344zm390.08 157.76c-12.124-16.089-9.2636-38.694 6.3889-50.488 15.652-11.795 38.17-8.314 50.294 7.7751s9.2636 38.694-6.3889 50.489c-15.652 11.795-38.17 8.3139-50.294-7.7752zm-225.45-132.13c-18.107-8.8313-25.82-30.271-17.229-47.886 8.5917-17.615 30.235-24.736 48.342-15.905 18.107 8.8313 25.82 30.271 17.229 47.886-8.5916 17.615-30.235 24.736-48.342 15.905zm277.46 189.46c-9.7668-17.62-3.7883-39.606 13.353-49.108 17.142-9.5017 38.955-2.9208 48.722 14.699 9.7668 17.62 3.7883 39.606-13.353 49.108-17.142 9.5018-38.955 2.9208-48.722-14.699zm-530.4-209.26c-20.146 0-36.477-15.888-36.477-35.487s16.331-35.487 36.477-35.487c20.146 0 36.477 15.888 36.477 35.487s-16.331 35.487-36.477 35.487zm578.45 281.43c-6.8902-18.931 2.4541-39.711 20.871-46.414 18.417-6.7033 38.933 3.2091 45.823 22.14 6.8902 18.931-2.4541 39.711-20.871 46.414-18.417 6.7032-38.933-3.2091-45.823-22.14zm35.829 78.591c-3.844-19.776 8.6361-38.838 27.875-42.578 19.239-3.7396 37.951 9.26 41.795 29.036s-8.6361 38.838-27.875 42.578-37.951-9.26-41.795-29.036zm22.727 83.07c-0.7031-20.133 14.605-37.009 34.192-37.693 19.587-0.684 36.035 15.083 36.738 35.216 0.7031 20.134-14.605 37.009-34.192 37.693-19.587 0.684-36.035-15.083-36.738-35.216zm9.0654 85.503c2.4551-19.996 20.215-34.269 39.668-31.88 19.453 2.3885 33.232 20.534 30.777 40.53-2.4551 19.996-20.215 34.269-39.668 31.88s-33.232-20.534-30.777-40.53zm-3.5989 76.344c5.2141-19.459 24.788-31.122 43.719-26.049 18.931 5.0725 30.051 24.96 24.837 44.419s-24.788 31.122-43.719 26.049c-18.931-5.0726-30.051-24.96-24.837-44.419zm-17.072 84.348c8.194-18.404 29.351-26.861 47.256-18.89 17.905 7.9717 25.777 29.353 17.583 47.757s-29.351 26.861-47.256 18.89c-17.904-7.9717-25.776-29.353-17.582-47.757zm-30.448 80.719c10.972-16.896 33.192-21.939 49.629-11.264s20.867 33.024 9.8952 49.92c-10.972 16.896-33.192 21.939-49.629 11.264s-20.867-33.024-9.8952-49.92zm-43.074 75.103c13.48-14.971 36.215-16.476 50.78-3.3621 14.565 13.114 15.444 35.882 1.9642 50.853s-36.215 16.476-50.78 3.3622-15.444-35.882-1.9641-50.853zm-48.036 60.544c15.432-12.949 38.156-11.276 50.754 3.7377s10.3 37.682-5.1324 50.632-38.156 11.276-50.754-3.7377-10.3-37.682 5.1324-50.632zm-63.798 59.596c17.268-10.376 39.45-5.1683 49.544 11.631 10.094 16.8 4.2785 38.83-12.99 49.206s-39.45 5.1683-49.544-11.631c-10.094-16.8-4.2786-38.83 12.99-49.206zm-72.61 49.172c18.679-7.5467 39.773 1.0667 47.115 19.239s-1.8484 39.021-20.527 46.568-39.773-1.0667-47.115-19.238c-7.3419-18.172 1.8484-39.021 20.527-46.568zm-79.633 37.538c19.629-4.5318 39.116 7.2754 43.525 26.372s-7.9299 38.251-27.559 42.783c-19.629 4.5318-39.116-7.2754-43.525-26.372-4.4088-19.097 7.9299-38.251 27.559-42.783zm-84.696 24.979c20.097-1.4053 37.496 13.305 38.864 32.856 1.3671 19.551-13.816 36.54-33.913 37.945-20.097 1.4053-37.496-13.305-38.864-32.856-1.3672-19.551 13.816-36.54 33.913-37.945zm-77.852 11.155c20.097 1.4053 35.28 18.394 33.913 37.945-1.3672 19.551-18.767 34.262-38.864 32.856s-35.28-18.394-33.913-37.945c1.3672-19.551 18.767-34.262 38.864-32.856zm-88.509-0.1598c19.629 4.5318 31.968 23.686 27.559 42.783-4.4088 19.097-23.896 30.904-43.525 26.372-19.629-4.5318-31.968-23.686-27.559-42.783 4.4088-19.097 23.896-30.904 43.525-26.372zm-87.39-13.605c18.679 7.5467 27.869 28.396 20.527 46.568-7.3419 18.172-28.436 26.785-47.115 19.239-18.679-7.5467-27.869-28.396-20.527-46.568 7.3419-18.172 28.436-26.785 47.115-19.239zm-84.119-26.714c17.268 10.376 23.084 32.406 12.99 49.206s-32.276 22.007-49.544 11.631-23.084-32.406-12.99-49.205c10.094-16.8 32.276-22.007 49.544-11.631zm-78.777-39.166c15.433 12.949 17.73 35.618 5.1323 50.632-12.598 15.014-35.321 16.687-50.754 3.7377-15.432-12.949-17.73-35.618-5.1323-50.632 12.598-15.014 35.321-16.687 50.754-3.7377zm-63.967-44.495c13.48 14.971 12.601 37.739-1.9642 50.853-14.565 13.114-37.3 11.609-50.78-3.3622s-12.601-37.739 1.9642-50.853c14.565-13.114 37.3-11.609 50.78 3.3622zm-63.538-59.826c10.972 16.896 6.5419 39.246-9.8952 49.92-16.437 10.674-38.657 5.6311-49.629-11.264s-6.5419-39.246 9.8952-49.92c16.437-10.674 38.657-5.6311 49.629 11.264zm-53.116-68.745c8.194 18.404 0.32202 39.786-17.583 47.757s-39.062-0.4855-47.256-18.89c-8.194-18.404-0.32201-39.786 17.583-47.757 17.905-7.9717 39.062 0.4855 47.256 18.89zm-41.387-75.971c5.2141 19.459-5.9058 39.346-24.837 44.419s-38.505-6.5901-43.719-26.049c-5.2141-19.459 5.9058-39.346 24.837-44.419s38.505 6.5901 43.719 26.049zm-26.111-72.087c2.4551 19.996-11.324 38.141-30.777 40.53-19.453 2.3886-37.213-11.885-39.668-31.88-2.4552-19.996 11.324-38.141 30.777-40.53 19.453-2.3885 37.213 11.885 39.668 31.88zm-16.704-84.409c-0.70307 20.133-17.151 35.9-36.739 35.216s-34.896-17.56-34.192-37.693c0.70308-20.133 17.151-35.9 36.739-35.216s34.896 17.56 34.192 37.693zm-2.9017-85.911c-3.844 19.776-22.556 32.775-41.795 29.036-19.239-3.7397-31.719-22.802-27.875-42.578s22.556-32.775 41.795-29.036c19.239 3.7397 31.719 22.802 27.875 42.578zm10.972-85.297c-6.8902 18.931-27.406 28.843-45.823 22.14-18.417-6.7033-27.761-27.484-20.871-46.414 6.8902-18.931 27.406-28.843 45.823-22.14 18.417 6.7032 27.761 27.484 20.871 46.414zm24.576-82.584c-9.7668 17.62-31.58 24.201-48.722 14.699s-23.12-31.488-13.353-49.108 31.58-24.201 48.722-14.699c17.142 9.5017 23.12 31.488 13.353 49.108zm32.784-69.483c-12.124 16.089-34.641 19.57-50.294 7.7752-15.652-11.795-18.513-34.4-6.3888-50.489 12.124-16.089 34.641-19.57 50.294-7.7751 15.652 11.795 18.513 34.399 6.3889 50.488zm48.362-72.003c-14.492 13.994-37.276 13.91-50.891-0.1882s-12.904-36.872 1.588-50.866 37.276-13.91 50.891 0.1883c13.615 14.098 12.904 36.872-1.5879 50.866zm59.363-63.772c-16.502 11.555-38.993 7.9076-50.235-8.147-11.242-16.054-6.9768-38.437 9.5256-49.992 16.502-11.555 38.993-7.9076 50.235 8.147 11.242 16.055 6.9768 38.437-9.5256 49.992zm68.902-53.97c-18.107 8.8313-39.75 1.7103-48.342-15.905-8.5916-17.615-0.87804-39.055 17.229-47.886s39.75-1.7103 48.342 15.905c8.5916 17.615 0.87804 39.055-17.229 47.886zm67.887-38.665c-19.16 6.2254-39.601-3.8384-45.658-22.478-6.0564-18.64 4.5659-38.797 23.726-45.022 19.16-6.2253 39.601 3.8385 45.658 22.478 6.0564 18.64-4.5659 38.797-23.726 45.022zm82.134-32.052c-19.898 3.1515-38.513-9.9862-41.579-29.344s10.579-37.605 30.477-40.756 38.513 9.9862 41.579 29.344c3.066 19.358-10.579 37.605-30.477 40.756z"/>
    </g>
  </g>
</svg>
