<?xml version="1.0" encoding="UTF-8"?>
<svg xmlns="http://www.w3.org/2000/svg" version="1.2" viewBox="-100 -100 2200 2200" width="60" height="60">
  <path fill="#0080ff" d="M100 0h1800c55.4 0 100 44.6 100 100v1800c0 55.4-44.6 100-100 100H100c-55.4 0-100-44.6-100-100V100C0 44.6 44.6 0 100 0z"/>
  <path fill="#f6f8fa" d="M1000.895 453.492q-196.94 0-313.313 146.81-115.478 146.81-115.478 400.146 0 252.44 115.478 399.25 116.373 146.81 313.313 146.81t311.523-146.81q115.478-146.81 115.478-399.25 0-253.337-115.478-400.146-114.583-146.81-311.523-146.81zm0-146.81q281.087 0 449.38 188.884 168.295 187.988 168.295 504.882 0 315.998-168.294 504.881-168.294 187.988-449.38 187.988-281.983 0-451.172-187.988-168.294-187.988-168.294-504.881 0-316.894 168.294-504.882 169.19-188.883 451.171-188.883z"/>
</svg>
