<?xml version="1.0" encoding="UTF-8"?>
<svg xmlns="http://www.w3.org/2000/svg" version="1.2" viewBox="-3.2 -3.2 70.4 70.4" width="100" height="100">
  <defs>
    <filter id="a" color-interpolation-filters="sRGB">
      <feFlood flood-color="rgb(127,127,127)" result="flood"/>
      <feComposite in="flood" in2="SourceGraphic" operator="in" result="composite1"/>
      <feGaussianBlur in="composite1" result="blur" stdDeviation="3.2"/>
      <feOffset dx="3.2" dy="3.2" result="offset"/>
      <feComposite in="SourceGraphic" in2="offset" result="composite2"/>
    </filter>
  </defs>
  <path d="m 32,0.8 0.3,0.1 0.7,1.5 0.5,1.8 0.7,3 0.4,3.3 0,13.9 7,5.8 12.3,8.5 0.2,0.4 0.2,0.7 0.2,1 0.1,0.8 0,0.8 -0.3,0 0,0.1 -0.2,0 0,-0.3 -13.3,-5.7 -6.2,-1.4 0,3 -0.1,4.7 0.4,-0.1 0.1,-1.3 0.2,-0.2 1.5,0 0.2,0.2 0,2 -0.2,3.3 -0.2,1.1 -0.4,1 -1.1,0 -0.2,-0.2 -1.2,0.7 -0.2,1.9 -0.7,3.4 6.4,5.4 0.3,0.4 0.1,0.5 0,1.2 -0.2,0.7 -6.9,-2.2 -0.1,1.1 -0.1,0.9 -0.1,0.5 -0.1,0.1 -0.1,-0.1 -0.1,-0.5 -0.1,-0.9 -0.1,-1.1 -6.9,2.2 -0.2,-0.7 0,-1.2 0.1,-0.5 0.3,-0.4 6.4,-5.4 -0.7,-3.4 -0.2,-1.9 -1.2,-0.7 -0.2,0.2 -1.1,0 -0.4,-1 -0.2,-1.1 -0.2,-3.3 0,-2 0.2,-0.2 1.5,0 0.2,0.2 0.1,1.3 0.4,0.1 -0.1,-4.7 0,-3 -6.2,1.4 -13.3,5.7 0,0.3 -0.2,0 0,-0.1 -0.3,0 0,-0.8 0.1,-0.8 0.2,-1 0.2,-0.7 0.2,-0.4 12.3,-8.5 7,-5.8 0,-13.9 0.4,-3.3 0.7,-3 0.5,-1.8 0.7,-1.5" fill="#ffffff" filter="url(#a)"/>
</svg>