<?xml version="1.0" encoding="UTF-8"?>
<svg xmlns="http://www.w3.org/2000/svg" version="1.2" viewBox="-3.2 -3.2 70.4 70.4" width="100" height="100">
  <defs>
    <filter id="a" color-interpolation-filters="sRGB">
      <feFlood flood-color="rgb(127,127,127)" result="flood"/>
      <feComposite in="flood" in2="SourceGraphic" operator="in" result="composite1"/>
      <feGaussianBlur in="composite1" result="blur" stdDeviation="3.2"/>
      <feOffset dx="3.2" dy="3.2" result="offset"/>
      <feComposite in="SourceGraphic" in2="offset" result="composite2"/>
    </filter>
  </defs>
  <path d="m 32,2.3 0.3,0.1 0.8,1.2 0.9,3.1 0.6,3.1 0.5,5.2 0,8.6 3.6,2.7 -0.2,-1.5 0,-1.5 0.1,-1.2 0.2,-0.4 2.8,0 0.2,0.4 0.1,1.2 0,1.5 -0.4,2.2 -0.3,0 -0.1,0.9 14,7.7 0.4,0.4 0.2,0.7 0,1.5 -8.3,-2.4 -0.1,0.4 -0.2,0.2 -0.2,-0.2 -0.1,-0.5 -3.7,-1.1 -0.1,0.4 -0.2,0.2 -0.2,-0.2 -0.1,-0.5 -2,-0.6 0,1 -0.1,0.5 -0.1,0.1 -0.4,0 -0.1,-0.1 -0.1,-0.5 0,-1.3 -4.6,0 0,10.5 -0.1,2.8 -0.6,3.7 -0.6,3 0.1,0.4 8.5,5.9 0,1.8 -10,-2.5 -0.2,0.7 -0.1,0.8 -0.1,0.4 -0.1,-0.4 -0.1,-0.8 -0.2,-0.7 -10,2.5 0,-1.8 8.5,-5.9 0.1,-0.4 -0.6,-3 -0.6,-3.7 -0.1,-2.8 0,-10.5 -4.6,0 0,1.3 -0.1,0.5 -0.1,0.1 -0.4,0 -0.1,-0.1 -0.1,-0.5 0,-1 -2,0.6 -0.1,0.5 -0.2,0.2 -0.2,-0.2 -0.1,-0.4 -3.7,1.1 -0.1,0.5 -0.2,0.2 -0.2,-0.2 -0.1,-0.4 -8.3,2.4 0,-1.5 0.2,-0.7 0.4,-0.4 14,-7.7 -0.1,-0.9 -0.3,0 -0.4,-2.2 0,-1.5 0.1,-1.2 0.2,-0.4 2.8,0 0.2,0.4 0.1,1.6 0,1.1 -0.2,1.5 3.6,-2.8 0,-8.5 0.5,-5.2 0.6,-3.1 1,-3.1 0.7,-1.2 z" fill="#ffffff" filter="url(#a)"/>
</svg>