<?xml version="1.0" encoding="UTF-8"?>
<svg xmlns="http://www.w3.org/2000/svg" version="1.2" viewBox="-3.2 -3.2 70.4 70.4" width="100" height="100">
  <defs>
    <filter id="a" color-interpolation-filters="sRGB">
      <feFlood flood-color="rgb(127,127,127)" result="flood"/>
      <feComposite in="flood" in2="SourceGraphic" operator="in" result="composite1"/>
      <feGaussianBlur in="composite1" result="blur" stdDeviation="3.2"/>
      <feOffset dx="3.2" dy="3.2" result="offset"/>
      <feComposite in="SourceGraphic" in2="offset" result="composite2"/>
    </filter>
  </defs>
  <path d="m 32,5.3 0.3,0.1 0.8,1.2 0.9,3.1 0.6,3.1 0.5,5.2 0,5.5 2.9,2.4 -0.1,-1 0,-1.5 0.1,-1.2 0.2,-0.4 2.7,0 0.2,0.4 0.1,1.2 0,1.5 -0.3,2.3 -0.4,0 -0.1,0.3 1.8,1 15.9,8.3 0.9,0.8 0.5,1.2 0,1.9 -0.4,-0.9 -0.7,-0.9 -11.4,-3.6 -0.1,0.8 -0.3,0.7 -0.3,-0.7 -0.1,-1 -4.2,-1 -0.1,0.8 -0.3,0.7 -0.3,-0.7 -0.1,-1 -1.2,-0.2 -0.6,0 -0.1,0.9 -0.3,0.7 -0.3,-0.7 -0.1,-0.9 -3.5,0 0,6.9 -0.1,2.7 -0.3,2.5 -0.7,2.4 9.1,7 0,2 -10.7,-3.2 -0.3,1 -0.2,0 -0.3,-1 -10.7,3.2 0,-2 9.2,-7 -0.7,-2.4 -0.4,-2.5 -0.1,-2.7 0,-6.9 -3.5,0 -0.1,0.9 -0.3,0.7 -0.3,-0.7 -0.1,-0.9 -0.6,0 -1.2,0.2 -0.1,1 -0.3,0.7 -0.3,-0.7 -0.1,-0.8 -4.2,1 -0.1,1 -0.3,0.7 -0.3,-0.7 -0.1,-0.8 -11.4,3.6 -0.7,0.9 -0.4,0.9 0,-1.9 0.5,-1.2 0.9,-0.8 15.9,-8.3 1.8,-1 -0.1,-0.3 -0.5,0 -0.2,-2.3 0,-1.5 0.1,-1.2 0.2,-0.4 2.7,0 0.2,0.4 0.1,1.2 0,1.5 -0.1,1 2.9,-2.4 0,-5.5 0.5,-5.2 0.6,-3.1 1,-3.1 0.7,-1.2 z" fill="#ffffff" filter="url(#a)"/>
</svg>