<?xml version="1.0" encoding="UTF-8"?>
<svg xmlns="http://www.w3.org/2000/svg" version="1.2" viewBox="-3.2 -3.2 70.4 70.4" width="100" height="100">
  <defs>
    <filter id="a" color-interpolation-filters="sRGB">
      <feFlood flood-color="rgb(127,127,127)" result="flood"/>
      <feComposite in="flood" in2="SourceGraphic" operator="in" result="composite1"/>
      <feGaussianBlur in="composite1" result="blur" stdDeviation="3.2"/>
      <feOffset dx="3.2" dy="3.2" result="offset"/>
      <feComposite in="SourceGraphic" in2="offset" result="composite2"/>
    </filter>
  </defs>
  <path d="m 32,0.1 0.1,0 0.2,0.1 0.2,0.2 0.3,0.4 0.4,0.9 0.5,1.6 0.5,2.4 0.3,2.3 0.2,2.8 0,9.6 0.9,0.7 5.1,4.8 -0.2,-0.9 0,-1.2 0.1,-1.1 0.2,-0.2 2.3,0 0.2,0.2 0.1,1.1 0,1.2 -0.2,2 -0.1,-0.3 -0.1,0.3 -0.2,-0.3 -0.2,0.9 5.5,5.1 -0.1,-0.7 0,-1.2 0.1,-1.1 0.2,-0.2 2.3,0 0.2,0.2 0.1,1.1 0,1.2 -0.2,2 -0.1,-0.3 -0.1,0.3 -0.2,-0.3 -0.1,0.9 7.6,6.3 1,1.3 0.8,1.3 0.7,1.5 0,0.7 -2.1,-1.6 -10.8,-6.2 0,0.5 -0.1,0.5 -0.3,-0.5 -0.1,-0.7 -2.4,-1.4 0,0.4 -0.1,0.5 -0.3,-0.5 -0.1,-0.7 -0.8,-0.4 -3.6,-1.7 0,0.5 -0.1,0.5 -0.3,-0.5 -0.1,-0.7 -1.8,-0.5 0,0.5 -0.1,0.5 -0.3,-0.5 -0.1,-0.7 -2.1,-0.6 0,13.3 -0.3,3.8 -0.2,1.6 -0.4,1.9 0.2,0.4 6.8,6.6 0.2,0.3 0.1,0.3 0,1.8 -8.5,-2.5 -0.5,1.6 0,1.4 -0.1,0.1 -0.1,-0.1 0,-1.4 -0.5,-1.6 -8.5,2.5 0,-1.8 0.1,-0.3 0.2,-0.3 6.8,-6.6 0.2,-0.4 -0.4,-1.9 -0.2,-1.6 -0.3,-3.8 0,-13.3 -2.1,0.6 -0.1,0.7 -0.3,0.5 -0.1,-0.5 0,-0.5 -1.8,0.5 -0.1,0.7 -0.3,0.5 -0.1,-0.5 0,-0.5 -3.6,1.7 -0.8,0.4 -0.1,0.7 -0.3,0.5 -0.1,-0.5 0,-0.4 -2.4,1.4 -0.1,0.7 -0.3,0.5 -0.1,-0.5 0,-0.5 -10.8,6.2 -2.1,1.6 0,-0.7 0.7,-1.5 0.8,-1.3 1,-1.3 7.7,-6.4 -0.2,-0.8 -0.2,0.3 -0.1,-0.3 -0.1,0.3 -0.2,-2 0,-1.2 0.1,-1.1 0.2,-0.2 2.3,0 0.2,0.2 0.1,1.1 0,1.2 -0.1,0.7 5.5,-5.1 -0.2,-0.9 -0.2,0.3 -0.1,-0.3 -0.1,0.3 -0.2,-2 0,-1.2 0.1,-1.1 0.2,-0.2 2.3,0 0.2,0.2 0.1,1.1 0,1.2 -0.2,0.9 5.1,-4.8 0.9,-0.7 0,-9.6 0.2,-2.8 0.3,-2.3 0.5,-2.4 0.5,-1.6 0.4,-0.9 0.3,-0.4 0.2,-0.2 0.2,-0.1 z" fill="#ffffff" filter="url(#a)"/>
</svg>