<?xml version="1.0" encoding="UTF-8"?>
<svg xmlns="http://www.w3.org/2000/svg" version="1.2" viewBox="-3.2 -3.2 70.4 70.4" width="100" height="100">
  <defs>
    <filter id="a" color-interpolation-filters="sRGB">
      <feFlood flood-color="rgb(127,127,127)" result="flood"/>
      <feComposite in="flood" in2="SourceGraphic" operator="in" result="composite1"/>
      <feGaussianBlur in="composite1" result="blur" stdDeviation="3.2"/>
      <feOffset dx="3.2" dy="3.2" result="offset"/>
      <feComposite in="SourceGraphic" in2="offset" result="composite2"/>
    </filter>
  </defs>
  <path d="m 32,1 0.2,0.1 0.3,0.3 0.6,0.8 0.7,1.7 0.3,2 0.1,2.5 0,15.7 0.6,1.1 3.1,1.7 -0.1,-1.1 0,-1.2 0.2,-1.1 0.1,-0.2 2.4,0 0.1,0.2 0.2,1.1 0,1.2 -0.2,1.6 -0.2,0 -0.1,0.7 13.3,7.1 0.3,0.5 0,2.3 -7.3,-2 -0.1,0.9 -0.2,-0.3 -0.1,-0.7 -3.3,-0.9 -0.1,0.7 -0.1,0.2 -0.1,-0.2 -0.1,-0.8 -2.1,-0.5 -1.4,0 -0.1,0.8 -0.1,0.2 -0.1,-0.2 -0.1,-0.8 -4.4,0 0,15 -0.1,1.9 -0.4,3.6 0.4,0.7 6.6,4.5 0,2.1 -7.8,-1.9 -0.2,0.8 -0.6,1.9 -0.2,0 -0.6,-1.9 -0.2,-0.8 -7.8,1.9 0,-2.1 6.6,-4.5 0.4,-0.7 -0.4,-3.6 -0.1,-1.9 0,-15 -4.4,0 -0.1,0.8 -0.1,0.2 -0.1,-0.2 -0.1,-0.8 -1.4,0 -2.1,0.5 -0.1,0.8 -0.1,0.2 -0.1,-0.2 -0.1,-0.7 -3.3,0.9 -0.1,0.7 -0.2,0.3 -0.1,-0.9 -7.3,2 0,-2.3 0.3,-0.5 13.3,-7.1 -0.1,-0.7 -0.2,0 -0.2,-1.6 0,-1.2 0.2,-1.1 0.1,-0.2 2.4,0 0.1,0.2 0.2,1.1 0,1.2 -0.1,1.1 3.1,-1.7 0.6,-1.1 0,-15.7 0.1,-2.5 0.3,-2 0.7,-1.7 0.6,-0.8 0.3,-0.3 z" fill="#ffffff" filter="url(#a)"/>
</svg>