<?xml version="1.0" encoding="UTF-8"?>
<svg xmlns="http://www.w3.org/2000/svg" version="1.2" viewBox="-3.2 -3.2 70.4 70.4" width="100" height="100">
  <defs>
    <filter id="a" color-interpolation-filters="sRGB">
      <feFlood flood-color="rgb(127,127,127)" result="flood"/>
      <feComposite in="flood" in2="SourceGraphic" operator="in" result="composite1"/>
      <feGaussianBlur in="composite1" result="blur" stdDeviation="3.2"/>
      <feOffset dx="3.2" dy="3.2" result="offset"/>
      <feComposite in="SourceGraphic" in2="offset" result="composite2"/>
    </filter>
  </defs>
  <path d="m 32,2.2 0.1,0 0.2,0.1 0.4,0.3 0.5,0.8 0.7,1.7 0.5,2 0.2,2.6 0,12.6 0.6,0.8 4.1,2.8 -0.2,-1.1 0,-1.2 0.2,-1.1 0.1,-0.2 2.3,0 0.1,0.2 0.2,1.1 0,1.2 -0.2,1.2 -0.3,0 -0.1,1.2 15.9,11 0.3,0.5 0,1.5 -0.2,0.6 -8.4,-3.4 -0.1,0.4 -0.1,-0.5 -4.2,-1.4 -0.1,0.4 -0.1,-0.5 -4.4,-1.4 -1,-0.2 -0.2,0.5 -0.2,-0.5 -4,-0.4 0,12.9 -0.1,2.6 -0.4,3.8 0.5,0.7 7.5,5.8 0,1.9 -9.2,-2.4 -0.7,1.5 -0.1,1.3 -0.2,0 -0.1,-1.3 -0.7,-1.5 -9.2,2.4 0,-1.9 7.5,-5.8 0.5,-0.7 -0.4,-3.8 -0.1,-2.6 0,-12.9 -4,0.4 -0.2,0.5 -0.2,-0.5 -1,0.2 -4.4,1.4 -0.1,0.5 -0.1,-0.4 -4.2,1.4 -0.1,0.5 -0.1,-0.4 -8.4,3.4 -0.2,-0.6 0,-1.5 0.3,-0.5 15.9,-11 -0.1,-1.2 -0.3,0 -0.2,-1.2 0,-1.2 0.2,-1.1 0.1,-0.2 2.3,0 0.1,0.2 0.2,1.1 0,1.2 -0.2,1.1 4.1,-2.8 0.6,-0.8 0,-12.6 0.2,-2.6 0.5,-2 0.7,-1.7 0.5,-0.8 0.4,-0.3 0.2,-0.1 z" fill="#ffffff" filter="url(#a)"/>
</svg>