<?xml version="1.0" encoding="UTF-8"?>
<svg xmlns="http://www.w3.org/2000/svg" version="1.2" viewBox="-3.2 -3.2 70.4 70.4" width="100" height="100">
  <defs>
    <filter id="a" color-interpolation-filters="sRGB">
      <feFlood flood-color="rgb(127,127,127)" result="flood"/>
      <feComposite in="flood" in2="SourceGraphic" operator="in" result="composite1"/>
      <feGaussianBlur in="composite1" result="blur" stdDeviation="3.2"/>
      <feOffset dx="3.2" dy="3.2" result="offset"/>
      <feComposite in="SourceGraphic" in2="offset" result="composite2"/>
    </filter>
  </defs>
  <path d="m 32,0.2 0.1,0 0.2,0.1 0.3,0.3 0.5,0.8 0.7,1.7 0.5,2 0.3,2.5 0,15 0.3,0.6 0.5,0.6 3.3,2.2 -0.2,-1.1 0,-1.6 0.2,-1.4 0.1,-0.2 3,0 0.1,0.2 0.2,1.4 0,1.6 -0.2,1.4 -0.4,0 -0.4,1.3 16.4,10.8 0.2,0.5 0.1,1.5 -9,-3.1 -0.1,0.6 -0.1,0.2 -0.1,-0.2 -0.1,-0.7 -4.2,-1.4 -0.1,0.6 -0.1,0.2 -0.1,-0.2 -0.1,-0.7 -2.5,-0.8 -1.8,0 -0.1,0.7 -0.1,0.2 -0.1,-0.2 -0.1,-0.7 -4.5,0 0,14.9 -0.2,1.9 -0.7,3.8 7.6,6.2 0.1,0.7 0,0.7 -0.1,0.7 -8.5,-3.1 -0.2,0.4 -0.5,1.8 -0.2,0 -0.5,-1.8 -0.2,-0.4 -8.5,3.1 -0.1,-0.7 0,-0.7 0.1,-0.7 7.6,-6.2 -0.7,-3.8 -0.2,-1.9 0,-14.9 -4.5,0 -0.1,0.7 -0.1,0.2 -0.1,-0.2 -0.1,-0.7 -1.8,0 -2.5,0.8 -0.1,0.7 -0.1,0.2 -0.1,-0.2 -0.1,-0.6 -4.2,1.4 -0.1,0.7 -0.1,0.2 -0.1,-0.2 -0.1,-0.6 -9,3.1 0.1,-1.5 0.2,-0.5 16.4,-10.8 -0.4,-1.3 -0.4,0 -0.2,-1.4 0,-1.6 0.2,-1.4 0.1,-0.2 3,0 0.1,0.2 0.2,1.4 0,1.6 -0.2,1.1 3.3,-2.2 0.5,-0.6 0.3,-0.6 0,-15 0.3,-2.5 0.5,-2 0.7,-1.7 0.5,-0.8 0.3,-0.3 0.2,-0.1 z" fill="#ffffff" filter="url(#a)"/>
</svg>