<?xml version="1.0" encoding="UTF-8"?>
<svg xmlns="http://www.w3.org/2000/svg" version="1.2" viewBox="-3.2 -3.2 70.4 70.4" width="80" height="80">
  <defs>
    <filter id="a" color-interpolation-filters="sRGB">
      <feFlood flood-color="rgb(127,127,127)" result="flood"/>
      <feComposite in="flood" in2="SourceGraphic" operator="in" result="composite1"/>
      <feGaussianBlur in="composite1" result="blur" stdDeviation="3.2"/>
      <feOffset dx="3.2" dy="3.2" result="offset"/>
      <feComposite in="SourceGraphic" in2="offset" result="composite2"/>
    </filter>
  </defs>
  <path d="m 32,10.2 0.4,0.7 0.2,0.6 4.7,0 0,0.2 -4.6,0.1 0.1,0.4 0.7,0 0.6,0.2 0.3,0.4 0.2,0.7 0.3,3.5 0.1,3 11.3,0 15.6,0.7 0.6,0.4 0.3,0.8 0,5.5 -17.5,2.5 -10.6,0 -1.8,14.1 8,1.2 0.4,0.5 0.2,1.1 0,1.2 -0.2,0.9 -0.4,0.7 -7.3,1.1 -1.3,-2.5 -0.1,5.6 -0.2,0.1 -0.2,-0.1 -0.1,-5.6 -1.3,2.5 -7.3,-1.1 -0.4,-0.7 -0.2,-0.9 0,-1.2 0.2,-1.1 0.4,-0.4 8,-1.3 -1.8,-14.1 -10.6,0 -17.5,-2.5 0,-5.5 0.3,-0.8 0.6,-0.3 15.6,-0.8 11.3,0 0.1,-3 0.3,-3.5 0.2,-0.7 0.3,-0.4 0.6,-0.2 0.7,0 0.1,-0.4 -4.7,-0.1 0,-0.2 4.8,0 0.2,-0.6 z" fill="#ffffff" filter="url(#a)"/>
</svg>
