<?xml version="1.0" encoding="UTF-8"?>
<svg xmlns="http://www.w3.org/2000/svg" version="1.2" viewBox="-3.2 -3.2 70.4 70.4" width="80" height="80">
  <defs>
    <filter id="a" color-interpolation-filters="sRGB">
      <feFlood flood-color="rgb(127,127,127)" result="flood"/>
      <feComposite in="flood" in2="SourceGraphic" operator="in" result="composite1"/>
      <feGaussianBlur in="composite1" result="blur" stdDeviation="3.2"/>
      <feOffset dx="3.2" dy="3.2" result="offset"/>
      <feComposite in="SourceGraphic" in2="offset" result="composite2"/>
    </filter>
  </defs>
  <path d="m 32,10.1 0.4,0.8 0.3,1 4.7,0 0,0.2 -4.6,0.1 0.1,0.6 0.6,0 0.6,0.2 0.3,0.4 0.2,0.7 0.4,4.3 0.1,3 11.2,0 15.8,0.8 0.6,0.4 0.3,0.8 0,5 -16.7,2.1 -11.3,0 -2,16.2 8.2,1.6 0.5,0.3 0.1,0.5 0,2.9 -0.2,0.4 -0.4,0.2 -7.9,1.1 -1,-2.5 -0.1,5 -0.2,0.1 -0.2,-0.1 -0.1,-5 -1,2.5 -7.9,-1.1 -0.4,-0.2 -0.2,-0.4 0,-2.9 0.1,-0.5 0.5,-0.3 8.2,-1.6 -2,-16.2 -11.3,0 -16.7,-2.1 0,-5 0.3,-0.8 0.6,-0.4 15.8,-0.8 11.2,0 0.1,-3 0.4,-4.3 0.2,-0.7 0.3,-0.4 0.6,-0.2 0.6,0 0.1,-0.6 -4.7,-0.1 0,-0.2 4.8,0 0.3,-1 z" fill="#ffffff" filter="url(#a)"/>
</svg>
