<?xml version="1.0" encoding="UTF-8"?>
<svg xmlns="http://www.w3.org/2000/svg" version="1.2" viewBox="-3.2 -3.2 70.4 70.4" width="80" height="80">
  <defs>
    <filter id="a" color-interpolation-filters="sRGB">
      <feFlood flood-color="rgb(127,127,127)" result="flood"/>
      <feComposite in="flood" in2="SourceGraphic" operator="in" result="composite1"/>
      <feGaussianBlur in="composite1" result="blur" stdDeviation="3.2"/>
      <feOffset dx="3.2" dy="3.2" result="offset"/>
      <feComposite in="SourceGraphic" in2="offset" result="composite2"/>
    </filter>
  </defs>
  <path d="m 32,8.4 0.4,0.7 0.2,0.8 5.2,0 0,0.2 -5.1,0.1 0.1,0.5 0.7,0 0.6,0.2 0.3,0.4 0.2,0.7 0.5,3.9 0.1,3.4 11.1,0 15.6,0.7 0.6,0.4 0.3,0.8 0,5.1 -16.8,2.3 -10.8,0 -2.1,16.1 8.3,1.1 0.5,0.4 0.1,1.5 0,1.2 -0.1,1.3 -0.5,0.3 -8.1,1.4 -0.8,-2.1 -0.2,1.7 -0.1,3.2 -0.2,0.9 -0.2,-0.9 -0.1,-3.2 -0.2,-1.7 -0.8,2.1 -8.1,-1.4 -0.5,-0.3 -0.1,-1.3 0,-1.2 0.1,-1.5 0.5,-0.4 8.3,-1.1 -2.1,-16.1 -10.8,0 -16.8,-2.3 0,-5.1 0.3,-0.8 0.6,-0.3 15.6,-0.8 11.1,0 0.1,-3.4 0.5,-3.9 0.2,-0.7 0.3,-0.4 0.6,-0.2 0.7,0 0.1,-0.5 -5.2,-0.1 0,-0.2 5.3,0 0.2,-0.8 z" fill="#ffffff" filter="url(#a)"/>
</svg>
