<?xml version="1.0" encoding="UTF-8"?>
<svg xmlns="http://www.w3.org/2000/svg" version="1.2" viewBox="-3.2 -3.2 70.4 70.4" width="80" height="80">
  <defs>
    <filter id="a" color-interpolation-filters="sRGB">
      <feFlood flood-color="rgb(127,127,127)" result="flood"/>
      <feComposite in="flood" in2="SourceGraphic" operator="in" result="composite1"/>
      <feGaussianBlur in="composite1" result="blur" stdDeviation="3.2"/>
      <feOffset dx="3.2" dy="3.2" result="offset"/>
      <feComposite in="SourceGraphic" in2="offset" result="composite2"/>
    </filter>
  </defs>
  <g filter="url(#a)">
    <g transform="matrix(0.12379414,0,0,0.12303946,1.8963138,2.0801286)" fill="#ffffff">
      <path d="m 217.66,392.14 h -3.925 c -3.252,0 -5.889,2.641 -5.889,5.891 v 82.429 c 0,3.25 2.637,5.887 5.889,5.887 h 3.925 c 3.25,0 5.887,-2.637 5.887,-5.887 v -82.429 c 0,-3.251 -2.637,-5.891 -5.887,-5.891 z" />
      <path d="M 408.32,3.268 C 403.719,-1.333 395.962,-1.026 390.984,3.95 L 271.014,123.91 C 264.382,-9.69 239.253,9.44 239.253,9.44 c 0,0 -24.329,-21.344 -31.424,106.96 L 95.369,3.94 C 90.394,-1.035 82.635,-1.342 78.035,3.259 73.434,7.858 73.741,15.616 78.716,20.593 l 127.82,127.81 c -0.345,12.419 -0.547,25.92 -0.605,40.601 l -6.877,6.877 h -14.751 v 14.751 l -105.59,105.59 c -4.976,4.974 -5.284,12.731 -0.684,17.332 4.6,4.601 12.359,4.292 17.334,-0.681 L 184.3,243.935 v 14.748 h 23.552 c 0,0 9.572,52.99 15.458,65.745 5.889,12.76 0.243,130.52 15.943,130.52 2.914,0 5.086,-4.056 6.734,-10.74 l 48.218,-20.662 v -7.851 h -44.467 c 2.585,-35.494 1.836,-83.387 5.467,-91.262 5.883,-12.755 15.448,-65.745 15.448,-65.745 h 23.552 v -22.6 l 96.779,96.79 c 4.978,4.973 12.735,5.281 17.336,0.681 4.601,-4.6 4.292,-12.358 -0.685,-17.332 l -113.43,-113.44 v -6.901 h -6.9 L 272.541,181.12 c -0.068,-8.77 -0.2,-17.138 -0.377,-25.054 l 135.48,-135.46 c 4.969,-4.977 5.277,-12.744 0.677,-17.334 z" />
    </g>
  </g>
</svg>
