<?xml version="1.0" encoding="UTF-8"?>
<svg xmlns="http://www.w3.org/2000/svg" version="1.2" viewBox="-3.2 -3.2 70.4 70.4" width="80" height="80">
  <defs>
    <filter id="a" color-interpolation-filters="sRGB">
      <feFlood flood-color="rgb(127,127,127)" result="flood"/>
      <feComposite in="flood" in2="SourceGraphic" operator="in" result="composite1"/>
      <feGaussianBlur in="composite1" result="blur" stdDeviation="3.2"/>
      <feOffset dx="3.2" dy="3.2" result="offset"/>
      <feComposite in="SourceGraphic" in2="offset" result="composite2"/>
    </filter>
  </defs>
  <path d="M32.6 4.038c2.834 4.136 3.603 11.872 3.318 21.077l5.047.461c-.05-1.589-.081-3.107-.047-4.529l.133-.214-4.315-.246 4.507-.209.113-.29c.276-1.261.672-1.688 1.076-2.053.567.663 1.011 1.33 1.14 2.36l4.388.44-4.164.065.053.116-.05 4.691 18.424 1.515.733.244.195.587-.537 2.54-6.988.734-.245.342-4.886.635v-.293l-7.037.928-.293.391-.293.05-1.32.097-.44-.244-5.13.83c.138 6.56-.599 11.808-1.76 16.419l10.018 1.955.83.342.098.537c-.079.764.133 2.013-.293 2.199l-8.014.733-.098.244-3.42.196-.685-1.026-.244.342c-.044 2.598-.28 3.085-.44 4.398-.197-1.417-.442-2.834-.39-4.252l-.294-.586-.83 1.32-3.08-.343v-.195l-8.257-.684c-.263-.8-.232-1.307-.245-1.857v-.684l.538-.587 10.457-2.052c-1.057-4.224-1.958-8.846-1.857-16.029l-.537-.537-4.936-.538v.244l-1.71-.342-.44-.244-6.744-.88v.391l-5.228-.733-.05-.293-6.987-.83-.44-.685-.098-.537v-1.417l.343-.538.342-.098 18.715-1.71-.053-4.653.098-.386-4.742-.169s4.839-.077 4.926-.346c.28-.868.592-1.597 1.139-2.02.61.716 1.182 1.433 1.026 2.15l4.512.325-4.262.138.19.856.049 3.91 4.886-.538V16.47c.467-4.628 1.275-8.643 3.323-12.412.386-.282.75-.737 1.26-.021z" fill="#ffffff" filter="url(#a)"/>
</svg>
